<svg width="9" height="10" viewBox="0 0 9 10" fill="none" xmlns="http://www.w3.org/2000/svg">
<g clip-path="url(#clip0_9_41)">
<path fill-rule="evenodd" clip-rule="evenodd" d="M5.18143 8.04001C5.00062 8.22727 4.75553 8.33246 4.5 8.33246C4.24446 8.33246 3.99937 8.22727 3.81857 8.04001L0.181283 4.26934C0.000471406 4.08174 -0.101073 3.82734 -0.101013 3.5621C-0.100953 3.29687 0.000707418 3.04252 0.181604 2.85501C0.362501 2.6675 0.607815 2.56219 0.863582 2.56226C1.11935 2.56232 1.36461 2.66774 1.54543 2.85534L4.5 5.91934L7.45457 2.85534C7.63635 2.67309 7.87989 2.57218 8.13272 2.57433C8.38556 2.57648 8.62746 2.68154 8.80633 2.86686C8.9852 3.05218 9.08673 3.30294 9.08905 3.56514C9.09136 3.82734 8.99428 4.07999 8.81871 4.26867L5.18207 8.04067L5.18143 8.04001Z" fill="#8C8C8C"/>
</g>
<defs>
<clipPath id="clip0_9_41">
<rect width="9" height="10" fill="white"/>
</clipPath>
</defs>
</svg>
