<svg width="25" height="23" viewBox="0 0 25 23" fill="none" xmlns="http://www.w3.org/2000/svg">
<path d="M18.0556 0.542206C18.7923 0.542206 19.4988 0.831937 20.0197 1.34766C20.5407 1.86339 20.8333 2.56286 20.8333 3.29221V8.79221H18.0556V3.29221H6.94444V7.41721H10.4167L5.55556 12.2297L0.694445 7.41721H4.16667V3.29221C4.16667 2.56286 4.45933 1.86339 4.98026 1.34766C5.50119 0.831937 6.20773 0.542206 6.94444 0.542206H18.0556ZM25 11.5422V14.2922H13.8889V11.5422H25ZM25 15.6672V18.4172H13.8889V15.6672H25ZM11.1111 15.6672V18.4172H0V15.6672H11.1111ZM25 19.7922V22.5422H13.8889V19.7922H25ZM11.1111 19.7922V22.5422H0V19.7922H11.1111Z" fill="#B6B2B2"/>
</svg>
