<svg width="25" height="21" viewBox="0 0 25 21" fill="none" xmlns="http://www.w3.org/2000/svg">
<path d="M6.94444 0.542206C6.20773 0.542206 5.50119 0.805598 4.98026 1.27444C4.45932 1.74328 4.16667 2.37916 4.16667 3.04221V8.04221H6.94444V3.04221H18.0556V6.79221H14.5833L19.4444 11.1672L24.3056 6.79221H20.8333V3.04221C20.8333 2.37916 20.5407 1.74328 20.0197 1.27444C19.4988 0.805598 18.7923 0.542206 18.0556 0.542206H6.94444ZM0 10.5422V13.0422H11.1111V10.5422H0ZM0 14.2922V16.7922H11.1111V14.2922H0ZM13.8889 14.2922V16.7922H25V14.2922H13.8889ZM0 18.0422V20.5422H11.1111V18.0422H0ZM13.8889 18.0422V20.5422H25V18.0422H13.8889Z" fill="#B6B2B2"/>
</svg>
