<svg width="26" height="26" viewBox="0 0 26 26" fill="none" xmlns="http://www.w3.org/2000/svg">
<g clip-path="url(#clip0_89_2)">
<path d="M13 0.1875C10.4659 0.1875 7.98877 0.93894 5.88176 2.3468C3.77476 3.75465 2.13255 5.75569 1.1628 8.09687C0.193051 10.438 -0.0606788 13.0142 0.433694 15.4996C0.928068 17.985 2.14834 20.2679 3.9402 22.0598C5.73206 23.8517 8.01503 25.0719 10.5004 25.5663C12.9858 26.0607 15.562 25.807 17.9031 24.8372C20.2443 23.8675 22.2454 22.2252 23.6532 20.1182C25.0611 18.0112 25.8125 15.5341 25.8125 13C25.8092 9.60293 24.4582 6.34594 22.0562 3.94385C19.6541 1.54176 16.3971 0.190809 13 0.1875ZM8.43751 16.2875C8.43751 16.5527 8.33215 16.8071 8.14461 16.9946C7.95708 17.1821 7.70272 17.2875 7.43751 17.2875C7.17229 17.2875 6.91794 17.1821 6.7304 16.9946C6.54286 16.8071 6.43751 16.5527 6.43751 16.2875V9.725C6.43751 9.45978 6.54286 9.20543 6.7304 9.01789C6.91794 8.83036 7.17229 8.725 7.43751 8.725C7.70272 8.725 7.95708 8.83036 8.14461 9.01789C8.33215 9.20543 8.43751 9.45978 8.43751 9.725V16.2875ZM14.0625 18.425C14.0625 18.6902 13.9571 18.9446 13.7696 19.1321C13.5821 19.3196 13.3277 19.425 13.0625 19.425C12.7973 19.425 12.5429 19.3196 12.3554 19.1321C12.1679 18.9446 12.0625 18.6902 12.0625 18.425V7.575C12.0625 7.30978 12.1679 7.05543 12.3554 6.86789C12.5429 6.68036 12.7973 6.575 13.0625 6.575C13.3277 6.575 13.5821 6.68036 13.7696 6.86789C13.9571 7.05543 14.0625 7.30978 14.0625 7.575V18.425ZM19.6875 16.2875C19.6875 16.5527 19.5821 16.8071 19.3946 16.9946C19.2071 17.1821 18.9527 17.2875 18.6875 17.2875C18.4223 17.2875 18.1679 17.1821 17.9804 16.9946C17.7929 16.8071 17.6875 16.5527 17.6875 16.2875V9.725C17.6875 9.45978 17.7929 9.20543 17.9804 9.01789C18.1679 8.83036 18.4223 8.725 18.6875 8.725C18.9527 8.725 19.2071 8.83036 19.3946 9.01789C19.5821 9.20543 19.6875 9.45978 19.6875 9.725V16.2875Z" fill="#B6B2B2"/>
</g>
<defs>
<clipPath id="clip0_89_2">
<rect width="26" height="26" fill="white"/>
</clipPath>
</defs>
</svg>
