<svg width="25" height="17" viewBox="0 0 25 17" fill="none" xmlns="http://www.w3.org/2000/svg">
<path d="M4.46429 0C3.28028 0 2.14477 0.447767 1.30756 1.2448C0.470343 2.04183 0 3.12283 0 4.25V5.1H25V4.25C25 3.12283 24.5297 2.04183 23.6924 1.2448C22.8552 0.447767 21.7197 0 20.5357 0H4.46429ZM25 6.8H0V12.75C0 13.8772 0.470343 14.9582 1.30756 15.7552C2.14477 16.5522 3.28028 17 4.46429 17H20.5357C21.7197 17 22.8552 16.5522 23.6924 15.7552C24.5297 14.9582 25 13.8772 25 12.75V6.8ZM16.9643 11.9H20.5357C20.7725 11.9 20.9996 11.9896 21.1671 12.149C21.3345 12.3084 21.4286 12.5246 21.4286 12.75C21.4286 12.9754 21.3345 13.1916 21.1671 13.351C20.9996 13.5104 20.7725 13.6 20.5357 13.6H16.9643C16.7275 13.6 16.5004 13.5104 16.3329 13.351C16.1655 13.1916 16.0714 12.9754 16.0714 12.75C16.0714 12.5246 16.1655 12.3084 16.3329 12.149C16.5004 11.9896 16.7275 11.9 16.9643 11.9Z" fill="#B6B2B2"/>
</svg>
