<svg width="25" height="25" viewBox="0 0 25 25" fill="none" xmlns="http://www.w3.org/2000/svg">
<path d="M22.03 4.64378L17.6786 6.37532L6.9643 2.11395L9.57145 1.0756C10.7636 0.601387 12.0936 0.601387 13.2857 1.0756L21.51 4.34691C21.6964 4.4207 21.8714 4.52158 22.03 4.64378ZM11.43 8.85969L15.7557 7.1381L5.04145 2.87674L1.34716 4.34691C1.16077 4.4207 0.985731 4.52016 0.827162 4.64236L11.43 8.85969ZM0.0485907 5.86537C0.0156442 6.01657 -0.000642207 6.17089 1.93711e-05 6.3256V17.1864C-5.21787e-05 17.6123 0.128256 18.0285 0.368384 18.3812C0.608511 18.7339 0.949438 19.0069 1.34716 19.1651L9.57145 22.4364C9.74097 22.5027 9.9124 22.5604 10.0857 22.6097L10.6172 20.5003C10.6457 20.3867 10.6781 20.2749 10.7143 20.1651V10.1083L0.0485907 5.86537ZM22.8572 6.3256V10.5259C22.1408 10.2999 21.3758 10.2741 20.6456 10.4512C19.9155 10.6283 19.2484 11.0015 18.7172 11.5301L12.1429 18.0671V10.1069L22.8072 5.86537C22.8405 6.01499 22.8572 6.1684 22.8572 6.3256ZM12.8286 19.3938L19.7286 12.5344C19.976 12.2847 20.2707 12.0861 20.5956 11.9501C20.9206 11.8141 21.2694 11.7435 21.622 11.7422C21.9745 11.7409 22.3238 11.809 22.6498 11.9426C22.9757 12.0762 23.2719 12.2726 23.5211 12.5205C23.7704 12.7684 23.9678 13.063 24.102 13.3871C24.2363 13.7113 24.3046 14.0587 24.3032 14.4092C24.3018 14.7598 24.2306 15.1066 24.0937 15.4296C23.9568 15.7527 23.757 16.0456 23.5057 16.2915L16.6057 23.1523C16.2035 23.5515 15.6999 23.8347 15.1486 23.9719L13.0086 24.5046C12.7957 24.5574 12.5726 24.5545 12.3611 24.4962C12.1496 24.4379 11.9569 24.3262 11.8017 24.1719C11.6465 24.0176 11.5342 23.826 11.4755 23.6157C11.4169 23.4054 11.414 23.1836 11.4672 22.9719L12.0029 20.8441C12.14 20.2958 12.4257 19.7929 12.8286 19.3938Z" fill="#B6B2B2"/>
</svg>
