<svg width="25" height="25" viewBox="0 0 25 25" fill="none" xmlns="http://www.w3.org/2000/svg">
<path d="M6.80154 6.47342L17.1312 2.04686L20.3719 3.29373C20.6937 3.41873 20.9765 3.60623 21.2078 3.84373L10.9375 8.24529L6.80154 6.47342ZM12.6203 0.31248L15.0422 1.24373L4.81716 5.62185L0.667164 3.84373C0.902514 3.60254 1.18711 3.41495 1.50154 3.29373L9.25466 0.31248C10.3379 -0.10416 11.5371 -0.10416 12.6203 0.31248ZM10.1562 9.60935L0.0109138 5.26248C0.00362206 5.3354 -2.47955e-05 5.40831 -2.47955e-05 5.48123V15.8344C-8.2016e-05 16.308 0.143364 16.7705 0.411411 17.161C0.679461 17.5515 1.05953 17.8517 1.50154 18.0219L9.25466 21.0047C9.54621 21.1168 9.84823 21.1995 10.1562 21.2515V9.60935ZM11.7187 16.1265V9.61092L21.864 5.26248C21.8702 5.33525 21.8739 5.40821 21.875 5.48123V9.49685C21.1406 9.23592 20.3531 9.09529 19.5312 9.09529C15.2172 9.09529 11.7187 12.2437 11.7187 16.1265ZM19.5312 21.5953C18.3031 21.5953 17.1687 21.189 16.2562 20.5062L12.2719 24.4906C12.1993 24.5632 12.1132 24.6209 12.0184 24.6602C11.9236 24.6996 11.8219 24.7199 11.7193 24.7199C11.6166 24.72 11.515 24.6999 11.4201 24.6607C11.3252 24.6214 11.239 24.5639 11.1664 24.4914C11.0937 24.4189 11.0361 24.3327 10.9968 24.2379C10.9574 24.1431 10.9371 24.0415 10.937 23.9388C10.937 23.8362 10.9571 23.7345 10.9963 23.6396C11.0355 23.5448 11.0931 23.4586 11.1656 23.3859L15.15 19.4015C14.4125 18.4153 14.0294 17.2089 14.0629 15.9778C14.0964 14.7467 14.5445 13.563 15.3345 12.6183C16.1246 11.6735 17.2104 11.0231 18.4161 10.7724C19.6219 10.5216 20.8769 10.6852 21.9781 11.2365C23.0794 11.7879 23.9622 12.6949 24.4838 13.8105C25.0053 14.9262 25.1351 16.1852 24.8519 17.3838C24.5688 18.5823 23.8894 19.6502 22.9238 20.4146C21.9581 21.1789 20.7628 21.5949 19.5312 21.5953ZM19.5312 20.0328C20.5672 20.0328 21.5608 19.6212 22.2934 18.8887C23.0259 18.1561 23.4375 17.1625 23.4375 16.1265C23.4375 15.0905 23.0259 14.097 22.2934 13.3644C21.5608 12.6318 20.5672 12.2203 19.5312 12.2203C18.4952 12.2203 17.5017 12.6318 16.7691 13.3644C16.0365 14.097 15.625 15.0905 15.625 16.1265C15.625 17.1625 16.0365 18.1561 16.7691 18.8887C17.5017 19.6212 18.4952 20.0328 19.5312 20.0328Z" fill="#B6B2B2"/>
</svg>
