<svg width="50" height="50" viewBox="0 0 50 50" fill="none" xmlns="http://www.w3.org/2000/svg">
<rect width="50" height="50" rx="25" fill="#FF5900"/>
<path d="M18.3333 12C17.4493 12 16.6014 12.3424 15.9763 12.9519C15.3512 13.5614 15 14.388 15 15.25V21.75H18.3333V15.25H31.6667V20.125H27.5L33.3333 25.8125L39.1667 20.125H35V15.25C35 14.388 34.6488 13.5614 34.0237 12.9519C33.3986 12.3424 32.5507 12 31.6667 12H18.3333ZM10 25V28.25H23.3333V25H10ZM10 29.875V33.125H23.3333V29.875H10ZM26.6667 29.875V33.125H40V29.875H26.6667ZM10 34.75V38H23.3333V34.75H10ZM26.6667 34.75V38H40V34.75H26.6667Z" fill="white"/>
</svg>
